<?xml version="1.0" encoding="UTF-8" standalone="no"?>
<!-- Created with Inkscape (http://www.inkscape.org/) -->

<svg
   width="5.1440902mm"
   height="3.96875mm"
   viewBox="0 0 5.1440902 3.96875"
   version="1.1"
   id="svg1"
   xml:space="preserve"
   xmlns="http://www.w3.org/2000/svg"
   xmlns:svg="http://www.w3.org/2000/svg"><defs
     id="defs1" /><g
     id="layer1"
     transform="translate(-102.65831,-126.33854)"><g
       style="fill:none"
       id="g1"
       transform="matrix(0.26458333,0,0,0.26458333,103.30448,127.19915)"><path
         d="M 15.8076,0.233807 0.807586,3.17498 C 0.338419,3.26698 0,3.6782 0,4.1563 V 6.04207 C 0,6.52462 0.344602,6.93835 0.819205,7.02559 L 15.8192,9.78294 C 16.4336,9.89588 17,9.42411 17,8.79942 V 1.21512 C 17,0.585613 16.4253,0.11268 15.8076,0.233807 Z"
         fill="#83d7f5"
         id="path1" /></g><g
       style="fill:none"
       id="g2"
       transform="matrix(0.26458333,0,0,0.26458333,101.86462,125.14792)"><path
         d="M 19.5,4.5 V 6.1275 L 4.22996,8.9025 C 3.88052,8.96639 3.5651,9.15223 3.33985,9.42692 3.11461,9.7016 2.99416,10.0473 2.99996,10.4025 v 3.255 c -0.0058,0.3552 0.11465,0.7009 0.33989,0.9756 0.22525,0.2747 0.54067,0.4605 0.89011,0.5244 l 1.77,0.2625 V 18 c 0,0.3978 0.15803,0.7794 0.43934,1.0607 C 6.7206,19.342 7.10213,19.5 7.49996,19.5 H 13.5 c 0.3978,0 0.7793,-0.158 1.0606,-0.4393 C 14.8419,18.7794 15,18.3978 15,18 v -0.945 l 4.5,0.8175 V 19.5 H 21 V 4.5 Z M 13.5,18 H 7.49996 V 15.6975 L 13.5,16.785 Z M 4.49996,13.6275 v -3.255 L 19.5,7.65 v 8.7 z"
         fill="#313942"
         id="path1-4" /></g></g></svg>
