<?xml version="1.0" encoding="UTF-8" standalone="no"?>
<!-- Created with Inkscape (http://www.inkscape.org/) -->

<svg
   width="210mm"
   height="297mm"
   viewBox="0 0 210 297"
   version="1.1"
   id="svg1"
   xmlns="http://www.w3.org/2000/svg"
   xmlns:svg="http://www.w3.org/2000/svg">
  <defs
     id="defs1">
    <rect
       x="231.19129"
       y="392.16539"
       width="385.00037"
       height="169.09445"
       id="rect3" />
    <rect
       x="110.81896"
       y="380.22369"
       width="570.33553"
       height="214.95058"
       id="rect1" />
  </defs>
  <g
     id="layer1">
    <text
       xml:space="preserve"
       transform="scale(0.26458333)"
       id="text1"
       style="fill:#000000;text-align:start;writing-mode:lr-tb;text-orientation:auto;direction:ltr;white-space:pre;shape-inside:url(#rect1);-inkscape-font-specification:'Glaser Stencil D';font-family:'Glaser Stencil D';font-weight:normal;font-style:normal;font-stretch:normal;font-variant:normal" />
    <path
       d="m 66.593514,102.56786 1.580448,3.10163 -3.042363,5.92668 h -3.180651 z m 5.254989,6.81568 h -3.95112 l 1.402648,-2.76578 H 70.4261 l -2.983096,-5.74888 1.600204,-3.081882 7.131772,13.809172 h -3.200408 z m 4.879643,-5.57108 2.844807,2.48921 v 5.2945 h -2.844807 z m 0,-5.867412 8.810998,7.803462 V 98.379668 H 88.38395 V 112.01103 L 76.728146,101.71837 Z M 92.94751,104.82 97.64935,98.379668 h 3.51649 l -5.37352,7.368842 v 5.84766 h -2.84481 z m -4.54378,-6.440332 h 3.47698 l 1.83727,2.607742 -1.778,2.39043 z m 18.37271,13.591852 q -1.36313,-0.19755 -2.50896,-0.80998 -1.12607,-0.61242 -1.9558,-1.52118 -0.82974,-0.92851 -1.28412,-2.09409 -0.45438,-1.18534 -0.45438,-2.52872 0,-1.32362 0.45438,-2.50896 0.45438,-1.18534 1.26436,-2.09409 0.82974,-0.928522 1.95581,-1.540942 1.14582,-0.61242 2.52871,-0.82973 v 2.884312 q -1.54093,0.37536 -2.44969,1.48167 -0.90876,1.08656 -0.90876,2.60774 0,1.50143 0.889,2.58799 0.90876,1.08655 2.46945,1.48167 z m 1.58045,-2.88431 q 1.56069,-0.29634 2.50896,-1.5607 l 2.25214,1.71874 q -1.83727,2.37067 -4.7611,2.72627 z m 0,-11.043382 q 1.48167,0.1778 2.68676,0.889 1.22485,0.69144 2.05458,1.817512 l -2.23238,1.75825 q -0.98778,-1.28411 -2.50896,-1.58045 z m 9.44318,0.33584 v 7.270062 q 0,0.77047 0.079,1.30387 0.079,0.5334 0.27658,0.90876 0.21731,0.37535 0.55315,0.63218 0.3556,0.25682 0.88901,0.45438 v 2.90407 q -0.96803,-0.15805 -1.79776,-0.61242 -0.82974,-0.47414 -1.48167,-1.16558 -0.73096,-0.80998 -1.04705,-1.75825 -0.31609,-0.96803 -0.31609,-2.41019 v -7.526882 z m 8.02077,0 v 7.526882 q 0,1.44216 -0.31609,2.41019 -0.31609,0.94827 -1.04705,1.75825 -0.65193,0.7112 -1.50142,1.16558 -0.84949,0.45437 -1.79776,0.61242 v -2.90407 q 0.5334,-0.1778 0.86924,-0.43463 0.35561,-0.25682 0.57292,-0.65193 0.21731,-0.3556 0.29633,-0.82974 0.079,-0.49389 0.079,-1.38289 v -7.270062 z m 2.50896,0 h 2.84481 v 13.216502 h -2.84481 z m 4.42526,10.430962 h 0.90876 q 0.49389,0 0.73095,-0.0198 0.25683,-0.0198 0.47414,-0.11853 0.73096,-0.25682 0.73096,-1.12607 0,-0.079 0,-0.11853 0,-0.0593 -0.0198,-0.15805 1.4224,-0.1778 2.48921,-1.36314 0.33584,0.79023 0.33584,1.71874 0,1.00754 -0.47413,1.89654 -0.45438,0.889 -1.26436,1.40265 -0.57291,0.39511 -1.22485,0.5334 -0.63218,0.13829 -1.73849,0.13829 h -0.94827 z m 0,-5.19573 h 0.92851 q 0.51365,0 0.77047,-0.0395 0.25682,-0.0395 0.47413,-0.13829 0.29634,-0.15804 0.47414,-0.43462 0.1778,-0.27658 0.1778,-0.63218 0,-0.67169 -0.51365,-0.96802 -0.21731,-0.13829 -0.49389,-0.1778 -0.25682,-0.0395 -0.80998,-0.0395 h -1.00753 v -2.805302 h 0.7112 q 0.65194,0 1.14583,0.0395 0.49389,0.0395 0.889,0.13829 0.39511,0.0988 0.7112,0.27658 0.33584,0.15804 0.65193,0.41487 1.50143,1.165582 1.50143,3.101632 0,1.02729 -0.43462,1.89653 -0.43463,0.84949 -1.22485,1.42241 -0.27658,0.19755 -0.57291,0.33584 -0.29634,0.11854 -0.65194,0.21731 -0.3556,0.079 -0.79022,0.11854 -0.41487,0.0395 -0.94827,0.0395 h -0.98778 z m 7.66516,-5.235232 h 2.84481 v 13.216502 h -2.84481 z m 11.0829,13.591852 q -1.36314,-0.19755 -2.50897,-0.80998 -1.12606,-0.61242 -1.9558,-1.52118 -0.82973,-0.92851 -1.28411,-2.09409 -0.45438,-1.18534 -0.45438,-2.52872 0,-1.32362 0.45438,-2.50896 0.45438,-1.18534 1.26435,-2.09409 0.82974,-0.928522 1.95581,-1.540942 1.14582,-0.61242 2.52872,-0.82973 v 2.884312 q -1.54094,0.37536 -2.4497,1.48167 -0.90876,1.08656 -0.90876,2.60774 0,1.50143 0.88901,2.58799 0.90875,1.08655 2.46945,1.48167 z m 1.58044,-2.88431 q 1.5607,-0.29634 2.50897,-1.5607 l 2.25213,1.71874 q -1.83727,2.37067 -4.7611,2.72627 z m 0,-11.043382 q 1.48167,0.1778 2.68677,0.889 1.22484,0.69144 2.05458,1.817512 l -2.23238,1.75825 q -0.98778,-1.28411 -2.50897,-1.58045 z"
       id="text2"
       style="font-size:19.7556px;font-family:'Glaser Stencil D';-inkscape-font-specification:'Glaser Stencil D';stroke-width:0.264583"
       aria-label="Anycubic" />
    <text
       xml:space="preserve"
       transform="scale(0.26458333)"
       id="text3"
       style="fill:#000000;text-align:start;writing-mode:lr-tb;text-orientation:auto;direction:ltr;-inkscape-font-specification:'Glaser Stencil D';font-family:'Glaser Stencil D';font-weight:normal;font-style:normal;font-stretch:normal;font-variant:normal;white-space:pre;shape-inside:url(#rect3)" />
  </g>
</svg>
